{
  "accessors": [
    {
      "bufferView": 2,
      "componentType": 5126,
      "count": 2514,
      "max": [
        95.95210266113281,
        195.09300231933594,
        119.36229705810547
      ],
      "min": [
        -95.95210266113281,
        -182.4250030517578,
        8.192899703979492
      ],
      "type": "VEC3"
    },
    {
      "bufferView": 2,
      "byteOffset": 30168,
      "componentType": 5126,
      "count": 2514,
      "max": [
        1.0,
        1.0,
        0.9999996423721313
      ],
      "min": [
        -1.0,
        -1.0,
        -0.9999982118606567
      ],
      "type": "VEC3"
    },
    {
      "bufferView": 1,
      "componentType": 5126,
      "count": 2514,
      "max": [
        0.9965999722480774,
        -0.0038999998942017555
      ],
      "min": [
        0.004699999932199717,
        -0.9970999956130981
      ],
      "type": "VEC2"
    },
    {
      "bufferView": 0,
      "componentType": 5125,
      "count": 9999,
      "type": "SCALAR"
    },
    {
      "bufferView": 2,
      "byteOffset": 60336,
      "componentType": 5126,
      "count": 1334,
      "max": [
        95.91699981689453,
        195.09300231933594,
        114.94029998779297
      ],
      "min": [
        -95.91699981689453,
        -182.46719360351563,
        8.192899703979492
      ],
      "type": "VEC3"
    },
    {
      "bufferView": 2,
      "byteOffset": 76344,
      "componentType": 5126,
      "count": 1334,
      "max": [
        0.999996542930603,
        0.9999711513519287,
        0.9996048808097839
      ],
      "min": [
        -0.999996542930603,
        -0.9999831914901733,
        -0.9999469518661499
      ],
      "type": "VEC3"
    },
    {
      "bufferView": 1,
      "byteOffset": 20112,
      "componentType": 5126,
      "count": 1334,
      "max": [
        0.9951000213623047,
        -0.008799999952316284
      ],
      "min": [
        0.10989999771118164,
        -0.9951000213623047
      ],
      "type": "VEC2"
    },
    {
      "bufferView": 0,
      "byteOffset": 39996,
      "componentType": 5125,
      "count": 5961,
      "type": "SCALAR"
    },
    {
      "bufferView": 2,
      "byteOffset": 92352,
      "componentType": 5126,
      "count": 72,
      "max": [
        71.51930236816406,
        -49.3213005065918,
        115.97039794921875
      ],
      "min": [
        -71.51930236816406,
        -78.64920043945313,
        82.01380157470703
      ],
      "type": "VEC3"
    },
    {
      "bufferView": 2,
      "byteOffset": 93216,
      "componentType": 5126,
      "count": 72,
      "max": [
        0.8983099460601807,
        -0.10470116138458252,
        0.5121866464614868
      ],
      "min": [
        -0.8978554606437683,
        -0.9343752861022949,
        0.3562905788421631
      ],
      "type": "VEC3"
    },
    {
      "bufferView": 1,
      "byteOffset": 30784,
      "componentType": 5126,
      "count": 72,
      "max": [
        1.0,
        0.9674999713897705
      ],
      "min": [
        0.0,
        0.024900000542402267
      ],
      "type": "VEC2"
    },
    {
      "bufferView": 0,
      "byteOffset": 63840,
      "componentType": 5125,
      "count": 222,
      "type": "SCALAR"
    },
    {
      "bufferView": 2,
      "byteOffset": 94080,
      "componentType": 5126,
      "count": 2159,
      "max": [
        84.96790313720703,
        107.74960327148438,
        63.419498443603516
      ],
      "min": [
        -84.96790313720703,
        -152.49600219726563,
        0.5274999737739563
      ],
      "type": "VEC3"
    },
    {
      "bufferView": 2,
      "byteOffset": 119988,
      "componentType": 5126,
      "count": 2159,
      "max": [
        1.0,
        1.0,
        0.9999908208847046
      ],
      "min": [
        -1.0,
        -1.0,
        -1.0
      ],
      "type": "VEC3"
    },
    {
      "bufferView": 1,
      "byteOffset": 31360,
      "componentType": 5126,
      "count": 2159,
      "max": [
        -0.012799999676644802,
        -0.009800000116229057
      ],
      "min": [
        -0.9897000193595886,
        -0.9901999831199646
      ],
      "type": "VEC2"
    },
    {
      "bufferView": 0,
      "byteOffset": 64728,
      "componentType": 5125,
      "count": 9600,
      "type": "SCALAR"
    },
    {
      "bufferView": 2,
      "byteOffset": 145896,
      "componentType": 5126,
      "count": 37,
      "max": [
        89.54080200195313,
        -172.26600646972656,
        59.079498291015625
      ],
      "min": [
        -89.54080200195313,
        -178.64199829101563,
        47.316001892089844
      ],
      "type": "VEC3"
    },
    {
      "bufferView": 2,
      "byteOffset": 146340,
      "componentType": 5126,
      "count": 37,
      "max": [
        0.5510730743408203,
        -0.8335592150688171,
        0.11289797723293304
      ],
      "min": [
        -0.5510730743408203,
        -0.9985702633857727,
        -0.19179867208003998
      ],
      "type": "VEC3"
    },
    {
      "bufferView": 1,
      "byteOffset": 48632,
      "componentType": 5126,
      "count": 37,
      "max": [
        -0.01600000075995922,
        0.9889000058174133
      ],
      "min": [
        -0.9872999787330627,
        0.01510000042617321
      ],
      "type": "VEC2"
    },
    {
      "bufferView": 0,
      "byteOffset": 103128,
      "componentType": 5125,
      "count": 96,
      "type": "SCALAR"
    },
    {
      "bufferView": 2,
      "byteOffset": 146784,
      "componentType": 5126,
      "count": 26,
      "max": [
        90.05950164794922,
        184.21499633789063,
        48.849700927734375
      ],
      "min": [
        -90.05950164794922,
        183.48399353027344,
        43.94110107421875
      ],
      "type": "VEC3"
    },
    {
      "bufferView": 2,
      "byteOffset": 147096,
      "componentType": 5126,
      "count": 26,
      "max": [
        0.022600265219807625,
        0.9999784231185913,
        0.08800119906663895
      ],
      "min": [
        -0.022600265219807625,
        0.9961135387420654,
        -0.005299856420606375
      ],
      "type": "VEC3"
    },
    {
      "bufferView": 1,
      "byteOffset": 48928,
      "componentType": 5126,
      "count": 26,
      "max": [
        -0.0017999999690800905,
        -0.02250000089406967
      ],
      "min": [
        -0.9980000257492065,
        -0.9794999957084656
      ],
      "type": "VEC2"
    },
    {
      "bufferView": 0,
      "byteOffset": 103512,
      "componentType": 5125,
      "count": 54,
      "type": "SCALAR"
    }
  ],
  "asset": {
    "extras": {
      "author": "Neut2000 (https://sketchfab.com/Neut2000)",
      "license": "CC-BY-4.0 (http://creativecommons.org/licenses/by/4.0/)",
      "source": "https://sketchfab.com/3d-models/disney-infinity-ramone-4611741304234b7dac4d54959ab2928a",
      "title": "Disney Infinity Ramone"
    },
    "generator": "Sketchfab-12.67.0",
    "version": "2.0"
  },
  "bufferViews": [
    {
      "buffer": 0,
      "byteLength": 103728,
      "name": "floatBufferViews",
      "target": 34963
    },
    {
      "buffer": 0,
      "byteLength": 49136,
      "byteOffset": 103728,
      "byteStride": 8,
      "name": "floatBufferViews",
      "target": 34962
    },
    {
      "buffer": 0,
      "byteLength": 147408,
      "byteOffset": 152864,
      "byteStride": 12,
      "name": "floatBufferViews",
      "target": 34962
    }
  ],
  "buffers": [
    {
      "byteLength": 300272,
      "uri": "scene.bin"
    }
  ],
  "images": [
    {
      "uri": "textures/Material__45_baseColor.png"
    },
    {
      "uri": "textures/Material__46_baseColor.png"
    },
    {
      "uri": "textures/Material__47_baseColor.png"
    },
    {
      "uri": "textures/Material__48_baseColor.png"
    },
    {
      "uri": "textures/Material__49_baseColor.png"
    }
  ],
  "materials": [
    {
      "doubleSided": true,
      "emissiveTexture": {
        "index": 0
      },
      "name": "Material__45",
      "pbrMetallicRoughness": {
        "baseColorTexture": {
          "index": 0
        },
        "metallicFactor": 0.0
      }
    },
    {
      "doubleSided": true,
      "emissiveTexture": {
        "index": 1
      },
      "name": "Material__46",
      "pbrMetallicRoughness": {
        "baseColorTexture": {
          "index": 1
        },
        "metallicFactor": 0.0
      }
    },
    {
      "doubleSided": true,
      "emissiveTexture": {
        "index": 2
      },
      "name": "Material__47",
      "pbrMetallicRoughness": {
        "baseColorTexture": {
          "index": 2
        },
        "metallicFactor": 0.0
      }
    },
    {
      "doubleSided": true,
      "emissiveTexture": {
        "index": 3
      },
      "name": "Material__48",
      "pbrMetallicRoughness": {
        "baseColorTexture": {
          "index": 3
        },
        "metallicFactor": 0.0
      }
    },
    {
      "doubleSided": true,
      "emissiveTexture": {
        "index": 4
      },
      "name": "Material__49",
      "pbrMetallicRoughness": {
        "baseColorTexture": {
          "index": 4
        },
        "metallicFactor": 0.0
      }
    }
  ],
  "meshes": [
    {
      "name": "Object_0",
      "primitives": [
        {
          "attributes": {
            "NORMAL": 1,
            "POSITION": 0,
            "TEXCOORD_0": 2
          },
          "indices": 3,
          "material": 0,
          "mode": 4
        }
      ]
    },
    {
      "name": "Object_1",
      "primitives": [
        {
          "attributes": {
            "NORMAL": 5,
            "POSITION": 4,
            "TEXCOORD_0": 6
          },
          "indices": 7,
          "material": 0,
          "mode": 4
        }
      ]
    },
    {
      "name": "Object_2",
      "primitives": [
        {
          "attributes": {
            "NORMAL": 9,
            "POSITION": 8,
            "TEXCOORD_0": 10
          },
          "indices": 11,
          "material": 1,
          "mode": 4
        }
      ]
    },
    {
      "name": "Object_3",
      "primitives": [
        {
          "attributes": {
            "NORMAL": 13,
            "POSITION": 12,
            "TEXCOORD_0": 14
          },
          "indices": 15,
          "material": 2,
          "mode": 4
        }
      ]
    },
    {
      "name": "Object_4",
      "primitives": [
        {
          "attributes": {
            "NORMAL": 17,
            "POSITION": 16,
            "TEXCOORD_0": 18
          },
          "indices": 19,
          "material": 3,
          "mode": 4
        }
      ]
    },
    {
      "name": "Object_5",
      "primitives": [
        {
          "attributes": {
            "NORMAL": 21,
            "POSITION": 20,
            "TEXCOORD_0": 22
          },
          "indices": 23,
          "material": 4,
          "mode": 4
        }
      ]
    }
  ],
  "nodes": [
    {
      "children": [
        1
      ],
      "matrix": [
        1.0,
        0.0,
        0.0,
        0.0,
        0.0,
        2.220446049250313e-16,
        -1.0,
        0.0,
        0.0,
        1.0,
        2.220446049250313e-16,
        0.0,
        0.0,
        0.0,
        0.0,
        1.0
      ],
      "name": "Sketchfab_model"
    },
    {
      "children": [
        2,
        3,
        4,
        5,
        6,
        7
      ],
      "name": "Ramone.obj.cleaner.materialmerger.gles"
    },
    {
      "mesh": 0,
      "name": "Object_2"
    },
    {
      "mesh": 1,
      "name": "Object_3"
    },
    {
      "mesh": 2,
      "name": "Object_4"
    },
    {
      "mesh": 3,
      "name": "Object_5"
    },
    {
      "mesh": 4,
      "name": "Object_6"
    },
    {
      "mesh": 5,
      "name": "Object_7"
    }
  ],
  "samplers": [
    {
      "magFilter": 9729,
      "minFilter": 9987,
      "wrapS": 10497,
      "wrapT": 10497
    }
  ],
  "scene": 0,
  "scenes": [
    {
      "name": "Sketchfab_Scene",
      "nodes": [
        0
      ]
    }
  ],
  "textures": [
    {
      "sampler": 0,
      "source": 0
    },
    {
      "sampler": 0,
      "source": 1
    },
    {
      "sampler": 0,
      "source": 2
    },
    {
      "sampler": 0,
      "source": 3
    },
    {
      "sampler": 0,
      "source": 4
    }
  ]
}
